<svg width="187" height="187" viewBox="0 0 187 187" fill="none" xmlns="http://www.w3.org/2000/svg">
<rect width="187" height="187" fill="white"/>
<path d="M168 88.8491C168 132.199 141.963 168.019 96.477 168.019C50.9909 168.019 20 132.199 20 88.8491C20 45.4994 50.9909 30.744 96.477 30.744C141.963 30.744 168 45.4994 168 88.8491Z" fill="#FF5A5A"/>
<path d="M73.6232 42.8986L94.6964 47.1884L110.802 42.8986" stroke="#2B2D36" stroke-width="4"/>
<line x1="95.6425" y1="15.7295" x2="95.6425" y2="46.4735" stroke="#2B2D36" stroke-width="4"/>
<path d="M118.491 32.4095C111.674 37.4177 102.219 34.1399 96.4437 32.2485C96.391 28.1973 96.0624 16.1691 102.879 11.1609C109.695 6.15263 120.1 8.73285 125.875 10.6243C125.954 16.7011 125.307 27.4012 118.491 32.4095Z" fill="#4ED99C"/>
<line x1="70.4503" y1="71.2228" x2="72.1289" y2="77.0981" stroke="#2B2D36" stroke-width="2"/>
<line x1="76.4252" y1="72.5409" x2="75.5036" y2="76.9659" stroke="#2B2D36" stroke-width="2"/>
<ellipse cx="73.2657" cy="91.2215" rx="9.65217" ry="15.5274" fill="white"/>
<mask id="mask0_25_1718" style="mask-type:alpha" maskUnits="userSpaceOnUse" x="63" y="75" width="20" height="32">
<ellipse cx="73.2657" cy="91.2215" rx="9.65217" ry="15.5274" fill="white"/>
</mask>
<g mask="url(#mask0_25_1718)">
<ellipse cx="79.9802" cy="90.3824" rx="8.81285" ry="13.0095" fill="#2B2D36"/>
</g>
<line x1="111.204" y1="71.2228" x2="112.883" y2="77.0981" stroke="#2B2D36" stroke-width="2"/>
<line x1="117.179" y1="72.5409" x2="116.257" y2="76.9659" stroke="#2B2D36" stroke-width="2"/>
<ellipse cx="114.019" cy="91.2215" rx="9.65217" ry="15.5274" fill="white"/>
<mask id="mask1_25_1718" style="mask-type:alpha" maskUnits="userSpaceOnUse" x="104" y="75" width="20" height="32">
<ellipse cx="114.019" cy="91.2215" rx="9.65217" ry="15.5274" fill="white"/>
</mask>
<g mask="url(#mask1_25_1718)">
<ellipse cx="120.734" cy="90.3824" rx="8.81285" ry="13.0095" fill="#2B2D36"/>
</g>
<ellipse cx="94" cy="112.609" rx="5.36232" ry="3.21739" fill="white"/>
<path d="M83.6328 121.546V121.546C89.9307 125.487 97.9187 125.516 104.245 121.621L104.367 121.546" stroke="#2B2D36" stroke-width="2"/>
</svg>
