<svg width="207" height="235" viewBox="0 0 207 235" fill="none" xmlns="http://www.w3.org/2000/svg">
<path d="M207 124.269C207 184.9 170.583 235 106.964 235C43.3454 235 0 184.9 0 124.269C0 63.6375 43.3454 43 106.964 43C170.583 43 207 63.6375 207 124.269Z" fill="#ABE7AE"/>
<path d="M75 60L104.474 66L127 60" stroke="#2B2D36" stroke-width="4"/>
<line x1="105" y1="22" x2="105" y2="65" stroke="#2B2D36" stroke-width="4"/>
<path d="M137.753 45.3294C128.22 52.3342 114.995 47.7497 106.917 45.1043C106.844 39.4381 106.384 22.6149 115.918 15.6101C125.452 8.60537 140.004 12.2142 148.082 14.8597C148.192 23.3589 147.287 38.3247 137.753 45.3294Z" fill="#4ED99C"/>
<line x1="70.1793" y1="99.7253" x2="72.5271" y2="107.943" stroke="#2B2D36" stroke-width="2"/>
<line x1="78.5288" y1="101.378" x2="77.2399" y2="107.567" stroke="#2B2D36" stroke-width="2"/>
<ellipse cx="74.5" cy="127.587" rx="13.5" ry="21.7174" fill="white"/>
<mask id="mask0_127_2445" style="mask-type:alpha" maskUnits="userSpaceOnUse" x="61" y="105" width="27" height="45">
<ellipse cx="74.5" cy="127.587" rx="13.5" ry="21.7174" fill="white"/>
</mask>
<g mask="url(#mask0_127_2445)">
<ellipse cx="83.8915" cy="126.413" rx="12.3261" ry="18.1957" fill="#2B2D36"/>
</g>
<line x1="127.179" y1="99.7253" x2="129.527" y2="107.943" stroke="#2B2D36" stroke-width="2"/>
<line x1="135.529" y1="101.378" x2="134.24" y2="107.567" stroke="#2B2D36" stroke-width="2"/>
<ellipse cx="131.5" cy="127.587" rx="13.5" ry="21.7174" fill="white"/>
<mask id="mask1_127_2445" style="mask-type:alpha" maskUnits="userSpaceOnUse" x="118" y="105" width="27" height="45">
<ellipse cx="131.5" cy="127.587" rx="13.5" ry="21.7174" fill="white"/>
</mask>
<g mask="url(#mask1_127_2445)">
<ellipse cx="140.892" cy="126.413" rx="12.3261" ry="18.1957" fill="#2B2D36"/>
</g>
<ellipse cx="103.5" cy="157.5" rx="7.5" ry="4.5" fill="#FF5A5A"/>
<path d="M89 170V170C97.8086 175.512 108.981 175.553 117.829 170.105L118 170" stroke="#2B2D36" stroke-width="2"/>
<line x1="113.702" y1="39.5982" x2="140.702" y2="19.5982" stroke="#F3F2F8"/>
<line x1="129.508" y1="27.9106" x2="131.508" y2="16.9106" stroke="#F3F2F8"/>
<line x1="136.036" y1="32.4987" x2="122.036" y2="33.4987" stroke="#F3F2F8"/>
</svg>
