<svg width="244" height="247" viewBox="0 0 244 247" fill="none" xmlns="http://www.w3.org/2000/svg">
<path d="M0 114.344C-0.000455668 196.858 73.771 236.39 117.448 246.319C123.573 180.125 135.025 50.3306 117.448 39.4086C95.4761 25.7561 0.000519246 20.3186 0 114.344Z" fill="#FFB7B3"/>
<path d="M131.421 32.0916C16.6367 60.9761 17.4362 167.287 117.422 246.319C159.55 242.441 243.807 210.775 243.807 115.135C243.807 36.8186 171.817 21.9263 131.421 32.0916Z" fill="#FFC9C6"/>
<path d="M104.563 1.99635C114.472 16.6737 115.717 24.212 111.808 37.3149" stroke="#2B2D36" stroke-width="4"/>
<path d="M113.775 38.2414C127.146 42.7179 154.603 43.1634 157.466 9.13339C142.54 4.40435 112.906 3.6053 113.775 38.2414Z" fill="#4ED99C"/>
<line x1="87.9859" y1="92.0439" x2="90.3338" y2="100.261" stroke="#2B2D36" stroke-width="2"/>
<line x1="96.3354" y1="93.6966" x2="95.0465" y2="99.8855" stroke="#2B2D36" stroke-width="2"/>
<ellipse cx="92.3066" cy="119.906" rx="13.5" ry="21.7174" fill="white"/>
<mask id="mask0_127_2490" style="mask-type:alpha" maskUnits="userSpaceOnUse" x="78" y="98" width="28" height="44">
<ellipse cx="92.3066" cy="119.906" rx="13.5" ry="21.7174" fill="white"/>
</mask>
<g mask="url(#mask0_127_2490)">
<ellipse cx="101.698" cy="118.732" rx="12.3261" ry="18.1957" fill="#2B2D36"/>
</g>
<line x1="144.986" y1="92.0439" x2="147.334" y2="100.261" stroke="#2B2D36" stroke-width="2"/>
<line x1="153.335" y1="93.6966" x2="152.047" y2="99.8855" stroke="#2B2D36" stroke-width="2"/>
<ellipse cx="149.307" cy="119.906" rx="13.5" ry="21.7174" fill="white"/>
<mask id="mask1_127_2490" style="mask-type:alpha" maskUnits="userSpaceOnUse" x="135" y="98" width="28" height="44">
<ellipse cx="149.307" cy="119.906" rx="13.5" ry="21.7174" fill="white"/>
</mask>
<g mask="url(#mask1_127_2490)">
<ellipse cx="158.698" cy="118.732" rx="12.3261" ry="18.1957" fill="#2B2D36"/>
</g>
<ellipse cx="121.307" cy="149.819" rx="7.5" ry="4.5" fill="#FFB072"/>
<path d="M106.807 162.319V162.319C115.615 167.831 126.788 167.872 135.636 162.424L135.807 162.319" stroke="#2B2D36" stroke-width="2"/>
<path d="M9.80664 124.819C9.09325 139.504 14.3066 153.819 20.8066 162.819" stroke="#F3F2F8" stroke-width="4"/>
<path d="M22.5098 166.271C24.9568 172.162 26.8409 174.849 30.5098 179.271" stroke="#F3F2F8" stroke-width="4"/>
<line x1="151.893" y1="12.7273" x2="122.095" y2="33.7273" stroke="#F3F2F8"/>
<line x1="140.304" y1="12.3738" x2="139.304" y2="21.3738" stroke="#F3F2F8"/>
<line x1="128.807" y1="28.8186" x2="140.807" y2="28.8186" stroke="#F3F2F8"/>
</svg>
