<svg width="221" height="251" viewBox="0 0 221 251" fill="none" xmlns="http://www.w3.org/2000/svg">
<path d="M221 143.366C221 233.99 143.018 251 106.665 251C51.5498 251 -6.20413 211.114 0.538712 143.366C15.7886 -9.85434 221 30.4524 221 143.366Z" fill="#FFB072"/>
<path d="M107 15.0002V51.0002" stroke="#2B2D36" stroke-width="4"/>
<path d="M158.339 5.89345C145.343 0.123061 117.351 -3.5447 109.348 27.9474C123.895 34.1381 154.06 38.3944 158.339 5.89345Z" fill="#4ED99C"/>
<line x1="74.1793" y1="107.73" x2="76.5271" y2="115.947" stroke="#2B2D36" stroke-width="2"/>
<line x1="82.5288" y1="109.383" x2="81.2399" y2="115.572" stroke="#2B2D36" stroke-width="2"/>
<ellipse cx="78.5" cy="135.592" rx="13.5" ry="21.7174" fill="white"/>
<mask id="mask0_127_2383" style="mask-type:alpha" maskUnits="userSpaceOnUse" x="65" y="113" width="27" height="45">
<ellipse cx="78.5" cy="135.592" rx="13.5" ry="21.7174" fill="white"/>
</mask>
<g mask="url(#mask0_127_2383)">
<ellipse cx="87.8915" cy="134.418" rx="12.3261" ry="18.1957" fill="#2B2D36"/>
</g>
<line x1="131.179" y1="107.73" x2="133.527" y2="115.947" stroke="#2B2D36" stroke-width="2"/>
<line x1="139.529" y1="109.383" x2="138.24" y2="115.572" stroke="#2B2D36" stroke-width="2"/>
<ellipse cx="135.5" cy="135.592" rx="13.5" ry="21.7174" fill="white"/>
<mask id="mask1_127_2383" style="mask-type:alpha" maskUnits="userSpaceOnUse" x="122" y="113" width="27" height="45">
<ellipse cx="135.5" cy="135.592" rx="13.5" ry="21.7174" fill="white"/>
</mask>
<g mask="url(#mask1_127_2383)">
<ellipse cx="144.892" cy="134.418" rx="12.3261" ry="18.1957" fill="#2B2D36"/>
</g>
<ellipse cx="107.5" cy="165.505" rx="7.5" ry="4.5" fill="#FFF8B5"/>
<path d="M93 178.005V178.005C101.809 183.517 112.981 183.558 121.829 178.11L122 178.005" stroke="#2B2D36" stroke-width="2"/>
<line x1="117.824" y1="22.5365" x2="149.824" y2="10.5365" stroke="#F3F2F8"/>
<line x1="124.538" y1="20.3303" x2="128.916" y2="9.81253" stroke="#F3F2F8"/>
<line x1="137.089" y1="15.5127" x2="148.089" y2="17.5127" stroke="#F3F2F8"/>
<circle cx="39" cy="167.005" r="2" fill="#FF7D16"/>
<circle cx="33" cy="180.005" r="2" fill="#FF7D16"/>
<circle cx="50" cy="180.005" r="2" fill="#FF7D16"/>
<circle cx="2" cy="2" r="2" transform="matrix(-1 0 0 1 182 162.005)" fill="#FF7D16"/>
<circle cx="2" cy="2" r="2" transform="matrix(-1 0 0 1 188 175.005)" fill="#FF7D16"/>
<circle cx="2" cy="2" r="2" transform="matrix(-1 0 0 1 171 175.005)" fill="#FF7D16"/>
<path d="M193.537 97.9585C204.564 111.65 207.213 121.372 208.629 135.056" stroke="white" stroke-width="4"/>
<path d="M208.884 137.696C209.475 143.237 209.479 146.374 208.94 152.014" stroke="white" stroke-width="4"/>
</svg>
