<svg width="453" height="229" viewBox="0 0 453 229" fill="none" xmlns="http://www.w3.org/2000/svg">
<path d="M248 0C241.373 0 236 5.37256 236 12V80C236 86.6274 241.373 92 248 92H441.425C447.818 92 453 86.8176 453 80.4248C453 74.158 448.013 69.0293 441.749 68.854L375.5 67L324.571 68.4441C323.796 67.303 323.221 66.1133 323 64.9265V62.8923C323.19 61.9617 323.662 61.0515 324.496 60.1882L341.532 61.4492C364.479 63.1475 387.521 63.1475 410.468 61.4492L441.886 59.124C448.152 58.6602 453 53.4404 453 47.1567V41.7134C453 36.5193 448.505 32.467 443.339 33.0037C404.053 37.0857 364.489 37.5857 325.135 34.5042C324.558 32.4412 324.976 30.3621 327.206 28.5369L339.532 29.4492C362.479 31.1475 385.521 31.1475 408.468 29.4492L439.886 27.124C446.152 26.6602 451 21.4404 451 15.1567V12C451 5.37256 445.627 0 439 0H248Z" fill="#EF6259"/>
<path d="M0 14C0 7.37256 5.37256 2 12 2H95C101.627 2 107 7.37256 107 14V57C107 63.6274 101.627 69 95 69H42C35.7094 69 30.5492 64.1597 30.041 58H12C5.37256 58 0 52.6274 0 46V14Z" fill="#EF6259"/>
<path d="M124 2C117.373 2 112 7.37256 112 14V46C112 52.6274 117.373 58 124 58H142.041C142.549 64.1597 147.709 69 154 69H207C213.627 69 219 63.6274 219 57V14C219 7.37256 213.627 2 207 2H124Z" fill="#EF6259"/>
<path d="M236 110C236 103.373 241.373 98 248 98H439C445.627 98 451 103.373 451 110V120C451 126.627 445.627 132 439 132H248C241.373 132 236 126.627 236 120V110Z" fill="#EF6259"/>
<path d="M248 136C241.373 136 236 141.373 236 148V149.831C236 156.898 242.065 162.444 249.107 161.851C266.29 160.405 296.845 158.043 319 157.5C331.009 157.206 344.581 157.346 358.337 157.735C361.456 160.472 360.646 163.748 358.577 166.677C335 166.164 315.171 165.819 311 166C302.579 166.366 266.274 167.805 247.438 168.549C241.036 168.802 236 174.064 236 180.47C236 181.068 236.044 181.656 236.129 182.231C236.044 182.808 236 183.399 236 184V217C236 223.627 241.373 229 248 229H441C447.627 229 453 223.627 453 217V214.432C453 207.638 447.365 202.199 440.575 202.44L340 206L326.591 205.474C324.831 202.894 324.084 200.063 326.146 197.578C360.588 198.302 395.062 196.976 429.385 193.599L442.312 192.327C444.723 192.089 446.906 191.14 448.662 189.7C451.262 188.122 453 185.264 453 182V148C453 141.373 447.627 136 441 136H248Z" fill="#EF6259"/>
<path d="M12 78C5.37256 78 0 83.3726 0 90V115C0 121.627 5.37256 127 12 127H62V136H12C5.37256 136 0 141.373 0 148V215C0 221.627 5.37256 227 12 227H207C213.627 227 219 221.627 219 215V148C219 141.373 213.627 136 207 136H156V127H207C213.627 127 219 121.627 219 115V90C219 83.3726 213.627 78 207 78H12Z" fill="#EF6259"/>
<path d="M92.4547 173.36C92.7898 172.831 93.3911 172.533 94.0146 172.587L101.161 173.197C107.413 173.731 113.698 173.73 119.95 173.192L126.76 172.607C127.5 172.543 128.196 172.963 128.484 173.646V173.646C129.25 175.457 128.093 177.502 126.147 177.78L118.993 178.798C113.395 179.596 107.713 179.617 102.109 178.862L94.5425 177.843C92.4201 177.557 91.3078 175.168 92.4547 173.36V173.36Z" fill="white"/>
</svg>
