<svg width="16" height="16" viewBox="0 0 16 16" fill="none" xmlns="http://www.w3.org/2000/svg">
<path fill-rule="evenodd" clip-rule="evenodd" d="M11.2673 2.37999H11.334C13.1749 2.37999 14.6673 3.87237 14.6673 5.71332V11.7133C14.6673 13.5543 13.1749 15.0467 11.334 15.0467H4.66732C3.78326 15.0467 2.93542 14.6955 2.3103 14.0703C1.68517 13.4452 1.33398 12.5974 1.33398 11.7133V5.71332C1.33398 3.87237 2.82637 2.37999 4.66732 2.37999H4.73398V1.16666C4.73398 0.890514 4.95784 0.666656 5.23398 0.666656C5.51013 0.666656 5.73398 0.890514 5.73398 1.16666V2.37999H10.2673V1.16666C10.2673 0.890514 10.4912 0.666656 10.7673 0.666656C11.0435 0.666656 11.2673 0.890514 11.2673 1.16666V2.37999ZM5.00065 6.43999H11.0007C11.2768 6.43999 11.5007 6.21613 11.5007 5.93999C11.5007 5.66385 11.2768 5.43999 11.0007 5.43999H5.00065C4.72451 5.43999 4.50065 5.66385 4.50065 5.93999C4.50065 6.21613 4.72451 6.43999 5.00065 6.43999Z" fill="#3E404C"/>
</svg>
