<svg width="187" height="187" viewBox="0 0 187 187" fill="none" xmlns="http://www.w3.org/2000/svg">
<rect width="187" height="187" fill="white"/>
<path d="M100.857 22C98.5888 22 96.7506 25.3202 96.7506 29.416V71.4399C96.7506 75.5357 98.5888 78.8559 100.857 78.8559H167.039C169.227 78.8559 171 75.6532 171 71.7024C171 67.8295 169.294 64.66 167.15 64.5517L144.482 63.4059L127.056 64.2984C126.791 63.5932 126.594 62.8579 126.519 62.1245V60.8674C126.584 60.2922 126.745 59.7298 127.031 59.1963L132.86 59.9755C140.711 61.0251 148.595 61.0251 156.447 59.9755L167.197 58.5386C169.341 58.2519 171 55.0261 171 51.1428V47.7788C171 44.5689 169.462 42.0646 167.694 42.3962C154.252 44.9189 140.715 45.2279 127.249 43.3235C127.052 42.0486 127.195 40.7637 127.958 39.6358L132.176 40.1996C140.027 41.2491 147.911 41.2491 155.763 40.1996L166.513 38.7626C168.657 38.4759 170.316 35.2502 170.316 31.3668V29.416C170.316 25.3202 168.477 22 166.21 22H100.857Z" fill="#FF5A5A"/>
<path d="M16 30.652C16 26.5562 17.8383 23.236 20.106 23.236H48.5055C50.7732 23.236 52.6115 26.5562 52.6115 30.652V57.2259C52.6115 61.3217 50.7732 64.6419 48.5055 64.6419H30.3709C28.2184 64.6419 26.4528 61.6506 26.2789 57.8439H20.106C17.8383 57.8439 16 54.5237 16 50.4279V30.652Z" fill="#FF5A5A"/>
<path d="M58.4283 23.236C56.1606 23.236 54.3223 26.5562 54.3223 30.652V50.4279C54.3223 54.5237 56.1606 57.8439 58.4283 57.8439H64.6012C64.7751 61.6506 66.5407 64.6419 68.6932 64.6419H86.8278C89.0955 64.6419 90.9338 61.3217 90.9338 57.2259V30.652C90.9338 26.5562 89.0955 23.236 86.8278 23.236H58.4283Z" fill="#FF5A5A"/>
<path d="M96.7506 89.9799C96.7506 85.8841 98.5888 82.5639 100.857 82.5639H166.21C168.477 82.5639 170.316 85.8841 170.316 89.9799V96.1599C170.316 100.256 168.477 103.576 166.21 103.576H100.857C98.5888 103.576 96.7506 100.256 96.7506 96.1599V89.9799Z" fill="#FF5A5A"/>
<path d="M100.857 106.048C98.5888 106.048 96.7506 109.368 96.7506 113.464V114.595C96.7506 118.963 98.8258 122.39 101.235 122.024C107.115 121.13 117.57 119.671 125.15 119.335C129.259 119.153 133.903 119.24 138.61 119.48C139.677 121.172 139.4 123.196 138.692 125.006C130.625 124.689 123.84 124.476 122.413 124.588C119.531 124.814 107.109 125.703 100.664 126.163C98.4738 126.319 96.7506 129.571 96.7506 133.531C96.7506 133.9 96.7656 134.263 96.7948 134.619C96.7656 134.975 96.7506 135.34 96.7506 135.712V156.106C96.7506 160.202 98.5888 163.522 100.857 163.522H166.894C169.162 163.522 171 160.202 171 156.106V154.519C171 150.32 169.072 146.959 166.749 147.108L132.336 149.308L127.747 148.983C127.145 147.388 126.89 145.639 127.595 144.103C139.38 144.55 151.176 143.731 162.92 141.644L167.343 140.858C168.168 140.711 168.915 140.125 169.516 139.234C170.405 138.259 171 136.493 171 134.476V113.464C171 109.368 169.162 106.048 166.894 106.048H100.857Z" fill="#FF5A5A"/>
<path d="M20.106 70.2039C17.8383 70.2039 16 73.5241 16 77.6199V93.0699C16 97.1656 17.8383 100.486 20.106 100.486H37.2141V106.048H20.106C17.8383 106.048 16 109.368 16 113.464V154.87C16 158.966 17.8383 162.286 20.106 162.286H86.8278C89.0955 162.286 90.9338 158.966 90.9338 154.87V113.464C90.9338 109.368 89.0955 106.048 86.8278 106.048H69.3775V100.486H86.8278C89.0955 100.486 90.9338 97.1656 90.9338 93.0699V77.6199C90.9338 73.5241 89.0955 70.2039 86.8278 70.2039H20.106Z" fill="#FF5A5A"/>
<path d="M43.8686 128.559C44.1383 127.814 44.8957 127.363 45.6791 127.48L47.2082 127.709C51.4183 128.339 55.6988 128.337 59.9083 127.703L61.1969 127.509C62.0625 127.378 62.8843 127.931 63.0897 128.782V128.782C63.4706 130.36 62.5074 131.95 60.9325 132.343L60.2797 132.506C55.8631 133.607 51.2471 133.637 46.8169 132.591L45.9375 132.384C44.243 131.984 43.2759 130.196 43.8686 128.559V128.559Z" fill="white"/>
</svg>
