<svg width="14" height="15" viewBox="0 0 14 15" fill="none" xmlns="http://www.w3.org/2000/svg">
<path d="M11.3042 2.86944C10.8666 2.86944 10.4649 2.61837 10.264 2.23099L9.7475 1.19082C9.41751 0.53802 8.55668 0 7.82497 0H6.18222C5.44332 0 4.58248 0.53802 4.2525 1.19082L3.736 2.23099C3.53514 2.61837 3.13342 2.86944 2.69583 2.86944C1.13915 2.86944 -0.0947059 4.18221 0.00572456 5.73171L0.378752 11.6571C0.464835 13.1349 1.26111 14.3472 3.24102 14.3472H10.759C12.7389 14.3472 13.528 13.1349 13.6212 11.6571L13.9943 5.73171C14.0947 4.18221 12.8608 2.86944 11.3042 2.86944ZM5.92397 3.76614H8.07605C8.37017 3.76614 8.61407 4.01004 8.61407 4.30416C8.61407 4.59828 8.37017 4.84218 8.07605 4.84218H5.92397C5.62985 4.84218 5.38593 4.59828 5.38593 4.30416C5.38593 4.01004 5.62985 3.76614 5.92397 3.76614ZM7.00001 11.5638C5.66572 11.5638 4.57531 10.4806 4.57531 9.13917C4.57531 7.79771 5.65855 6.71449 7.00001 6.71449C8.34147 6.71449 9.42469 7.79771 9.42469 9.13917C9.42469 10.4806 8.3343 11.5638 7.00001 11.5638Z" fill="white"/>
</svg>
