<svg width="289" height="316" viewBox="0 0 289 316" fill="none" xmlns="http://www.w3.org/2000/svg">
<path d="M96.9878 277.368C107.332 281.848 117.008 275.092 124.292 266.197C270.663 281.93 276.838 110.471 201.977 58.8607C201.121 49.3764 197.584 40.4384 188.731 36.6045C179.282 32.5121 170.39 37.7955 163.37 45.521C55.9052 34.8241 -16.5599 178.663 83.5253 250.099C83.5215 261.306 86.5838 272.862 96.9878 277.368Z" fill="#FFF172"/>
<path d="M159.969 50.456C158.579 36.3047 147.965 10.1444 116.622 18.7137C118.411 34.4219 129.585 62.762 159.969 50.456Z" fill="#4ED99C"/>
<path d="M158.973 50.9855C166.893 50.3836 180.615 44.4073 172.138 25.3173C163.374 26.1345 148.472 32.4122 158.973 50.9855Z" fill="#00BC8F"/>
<line x1="124.33" y1="22.6246" x2="149.33" y2="44.6246" stroke="#F3F2F8"/>
<line x1="168.455" y1="32.2069" x2="163.455" y2="43.2069" stroke="#F3F2F8"/>
<line x1="142.487" y1="29.8874" x2="145.004" y2="40.7808" stroke="#F3F2F8"/>
<line x1="133" y1="30.5" x2="124" y2="30.5" stroke="#F3F2F8"/>
<ellipse cx="143.5" cy="162.5" rx="7.5" ry="4.5" fill="#EF6259"/>
<path d="M129 175V175C137.809 180.512 148.981 180.553 157.829 175.105L158 175" stroke="#2B2D36" stroke-width="2"/>
<circle cx="111.5" cy="140.5" r="17.5" fill="white"/>
<circle cx="112" cy="140" r="13" fill="#2B2D36"/>
<circle cx="175.5" cy="140.5" r="17.5" fill="white"/>
<circle cx="176" cy="140" r="13" fill="#2B2D36"/>
<path d="M46.4996 149.5C42.2919 166.568 43.9997 176.5 48.5 189.5" stroke="white" stroke-width="4"/>
<path d="M49.3848 192C51.1912 197.272 52.5132 200.116 55.3848 205" stroke="white" stroke-width="4"/>
</svg>
