<svg width="10" height="10" viewBox="0 0 10 10" fill="none" xmlns="http://www.w3.org/2000/svg">
<g clip-path="url(#clip0_427_2139)">
<path d="M6.14603 2.82582C6.0713 2.86108 5.99919 2.89318 5.92919 2.92213C5.9234 2.92424 5.91814 2.92529 5.9134 2.92739C7.46708 2.09424 6.9413 0.526342 6.9413 0.526342C5.48656 0.513184 4.86024 1.8495 4.75656 2.09845C4.58024 1.60213 4.34235 1.26845 4.0913 1.04003C3.68551 0.670026 3.18814 1.25845 3.66761 1.51739C4.19393 1.80213 4.47551 2.66003 4.58551 3.08213C4.40498 3.05266 4.26603 3.00897 4.18445 2.97792C4.08445 2.93582 3.97498 2.88582 3.85445 2.82582C3.17498 2.48634 0.922348 2.40845 1.05866 5.63897C1.19498 8.8695 3.44919 9.66318 4.32182 9.43792C4.42077 9.41213 4.51024 9.39055 4.58972 9.37213C4.59393 9.3716 5.01024 9.28792 5.42866 9.37687C5.50445 9.39371 5.58656 9.41371 5.67814 9.43792C6.55077 9.66318 8.80445 8.8695 8.9413 5.63897C9.07814 2.40845 6.83235 2.50003 6.14603 2.82582ZM3.04287 4.68634C2.48393 5.19634 1.86603 5.09055 2.20445 4.32424C2.5113 3.62739 3.30656 3.5616 3.30656 3.5616C3.82708 3.50739 3.60235 4.17634 3.04287 4.68634Z" fill="#4ED99C"/>
</g>
<defs>
<clipPath id="clip0_427_2139">
<rect width="10" height="10" fill="white"/>
</clipPath>
</defs>
</svg>
