<svg width="10" height="10" viewBox="0 0 10 10" fill="none" xmlns="http://www.w3.org/2000/svg">
<path fill-rule="evenodd" clip-rule="evenodd" d="M8.87422 6.31528L9.19089 8.51528C9.21633 8.70059 9.15328 8.88709 9.0206 9.01895C8.88793 9.1508 8.70104 9.2127 8.51589 9.18611L6.31589 8.86944C6.01768 8.82833 5.74111 8.69078 5.52839 8.47778L1.47005 4.41528C0.928477 3.8922 0.711277 3.11761 0.901934 2.38922C1.09259 1.66082 1.66143 1.09198 2.38983 0.901324C3.11822 0.710667 3.89281 0.927867 4.41589 1.46944L8.48255 5.52778C8.69555 5.7405 8.83311 6.01707 8.87422 6.31528ZM4.46172 4.90278C4.58373 5.02463 4.78138 5.02463 4.90339 4.90278C5.02524 4.78077 5.02524 4.58312 4.90339 4.46111L3.14922 2.70694C3.02609 2.59221 2.83422 2.5956 2.71521 2.7146C2.59621 2.83361 2.59282 3.02548 2.70755 3.14861L4.46172 4.90278Z" fill="#858899"/>
</svg>
