<svg width="12" height="12" viewBox="0 0 12 12" fill="none" xmlns="http://www.w3.org/2000/svg">
<path fill-rule="evenodd" clip-rule="evenodd" d="M10.5 1.68445V4.0822V5.05795H10.3958H9.525H9.3765H7.1265V4.0822H8.9265C8.2995 3.1252 7.2285 2.48845 6 2.48845C4.056 2.48845 2.475 4.06945 2.475 6.0127C2.475 7.9567 4.056 9.53845 6 9.53845C7.93725 9.53845 9.51225 7.9672 9.52275 6.0322H10.4992C10.488 8.50795 8.47725 10.5127 6 10.5127C3.516 10.5127 1.5 8.49745 1.5 6.0127C1.5 3.52945 3.516 1.5127 6 1.5127C7.43475 1.5127 8.7015 2.19445 9.525 3.24145V1.68445H10.5Z" fill="#A9ABB8"/>
</svg>
