<svg width="76" height="83" viewBox="0 0 76 83" fill="none" xmlns="http://www.w3.org/2000/svg">
<path d="M76 41.4784C76 63.739 62.6297 82.1334 39.272 82.1334C15.9143 82.1334 0 63.739 0 41.4784C0 19.2177 15.9143 11.6406 39.272 11.6406C62.6297 11.6406 76 19.2177 76 41.4784Z" fill="#FF5A5A"/>
<path d="M27.5363 17.8828L38.3577 20.0857L46.628 17.8828M38.5507 3.93115V19.7186" stroke="#2B2D36" stroke-width="2"/>
<path d="M47.6616 11.4783C45.1533 13.3213 41.7768 12.255 39.7132 11.643C39.7349 10.2082 39.7374 5.94994 42.2457 4.107C44.7541 2.26406 48.4799 3.0736 50.5435 3.68566C50.5109 5.83785 50.17 9.63539 47.6616 11.4783Z" fill="#4ED99C"/>
<path d="M25.7662 32.4678L26.6282 35.4848M28.8318 33.0746L28.3586 35.3468" stroke="#2B2D36"/>
<ellipse cx="27.3526" cy="42.6967" rx="4.95652" ry="7.97354" fill="white"/>
<mask id="mask0_4_27586" style="mask-type:alpha" maskUnits="userSpaceOnUse" x="22" y="34" width="11" height="17">
<ellipse cx="27.3526" cy="42.6967" rx="4.95652" ry="7.97354" fill="white"/>
</mask>
<g mask="url(#mask0_4_27586)">
<ellipse cx="30.8007" cy="42.2665" rx="4.52552" ry="6.68053" fill="#2B2D36"/>
</g>
<path d="M46.6937 32.4678L47.5557 35.4848M49.7594 33.0746L49.2861 35.3468" stroke="#2B2D36"/>
<ellipse cx="48.2802" cy="42.6967" rx="4.95652" ry="7.97354" fill="white"/>
<mask id="mask1_4_27586" style="mask-type:alpha" maskUnits="userSpaceOnUse" x="43" y="34" width="11" height="17">
<ellipse cx="48.2802" cy="42.6967" rx="4.95652" ry="7.97354" fill="white"/>
</mask>
<g mask="url(#mask1_4_27586)">
<ellipse cx="51.7282" cy="42.2665" rx="4.52552" ry="6.68053" fill="#2B2D36"/>
</g>
<ellipse cx="38" cy="53.6795" rx="2.75362" ry="1.65217" fill="white"/>
<path d="M31.5898 57.7642V57.7642C35.4729 60.0012 40.2495 60.018 44.1482 57.8081L44.2258 57.7642" stroke="#2B2D36"/>
</svg>
