<svg width="104" height="69" viewBox="0 0 104 69" fill="none" xmlns="http://www.w3.org/2000/svg">
<mask id="path-1-inside-1_123_2280" fill="white">
<path fill-rule="evenodd" clip-rule="evenodd" d="M68.6467 20.544C69.3045 17.9096 69.3217 15.076 68.5692 12.2674C66.2041 3.44087 57.1316 -1.79717 48.3051 0.567883C43.2988 1.9093 39.447 5.40847 37.4821 9.79667C34.0702 7.71425 29.8445 6.97892 25.6788 8.09514C20.1621 9.57333 16.178 13.9162 14.898 19.0944C13.6819 19.1146 12.4487 19.2827 11.2207 19.6117C3.14729 21.775 -1.64384 30.0735 0.519431 38.1469C2.6827 46.2203 10.9812 51.0115 19.0546 48.8482C21.7343 48.1302 24.0523 46.7363 25.8745 44.8991C29.573 48.6142 35.1016 50.3023 40.5284 48.8482C41.8888 48.4837 43.1559 47.945 44.3123 47.2626C44.3686 47.5832 44.4394 47.904 44.5253 48.2244C46.1057 54.1229 52.1686 57.6233 58.0671 56.0428C60.0249 55.5182 61.7184 54.4998 63.0497 53.1576C65.7519 55.8718 69.791 57.1052 73.7559 56.0428C75.9784 55.4473 77.8604 54.2154 79.2585 52.5957C82.0086 56.6279 87.0997 58.6841 92.081 57.3493C98.3845 55.6603 102.125 49.1812 100.436 42.8777C99.525 39.4769 97.2195 36.822 94.2995 35.3634C94.7801 33.4386 94.7928 31.3683 94.2429 29.3162C92.515 22.8676 85.8866 19.0407 79.4379 20.7686C77.0944 21.3965 75.0971 22.6717 73.5868 24.3503C72.196 22.7663 70.5131 21.4766 68.6467 20.544Z"/>
</mask>
<path fill-rule="evenodd" clip-rule="evenodd" d="M68.6467 20.544C69.3045 17.9096 69.3217 15.076 68.5692 12.2674C66.2041 3.44087 57.1316 -1.79717 48.3051 0.567883C43.2988 1.9093 39.447 5.40847 37.4821 9.79667C34.0702 7.71425 29.8445 6.97892 25.6788 8.09514C20.1621 9.57333 16.178 13.9162 14.898 19.0944C13.6819 19.1146 12.4487 19.2827 11.2207 19.6117C3.14729 21.775 -1.64384 30.0735 0.519431 38.1469C2.6827 46.2203 10.9812 51.0115 19.0546 48.8482C21.7343 48.1302 24.0523 46.7363 25.8745 44.8991C29.573 48.6142 35.1016 50.3023 40.5284 48.8482C41.8888 48.4837 43.1559 47.945 44.3123 47.2626C44.3686 47.5832 44.4394 47.904 44.5253 48.2244C46.1057 54.1229 52.1686 57.6233 58.0671 56.0428C60.0249 55.5182 61.7184 54.4998 63.0497 53.1576C65.7519 55.8718 69.791 57.1052 73.7559 56.0428C75.9784 55.4473 77.8604 54.2154 79.2585 52.5957C82.0086 56.6279 87.0997 58.6841 92.081 57.3493C98.3845 55.6603 102.125 49.1812 100.436 42.8777C99.525 39.4769 97.2195 36.822 94.2995 35.3634C94.7801 33.4386 94.7928 31.3683 94.2429 29.3162C92.515 22.8676 85.8866 19.0407 79.4379 20.7686C77.0944 21.3965 75.0971 22.6717 73.5868 24.3503C72.196 22.7663 70.5131 21.4766 68.6467 20.544Z" fill="white"/>
<path d="M68.5692 12.2674L68.0862 12.3968L68.0862 12.3968L68.5692 12.2674ZM68.6467 20.544L68.1616 20.4229C68.1048 20.6503 68.2135 20.8865 68.4232 20.9913L68.6467 20.544ZM48.3051 0.567883L48.1757 0.08492L48.1757 0.08492L48.3051 0.567883ZM37.4821 9.79667L37.2216 10.2235C37.3442 10.2983 37.4931 10.3168 37.6303 10.2742C37.7675 10.2316 37.8797 10.1321 37.9384 10.001L37.4821 9.79667ZM25.6788 8.09514L25.8082 8.5781L25.8082 8.5781L25.6788 8.09514ZM14.898 19.0944L14.9063 19.5943C15.1331 19.5905 15.3289 19.4346 15.3834 19.2144L14.898 19.0944ZM11.2207 19.6117L11.3501 20.0947L11.3501 20.0947L11.2207 19.6117ZM0.519431 38.1469L1.00239 38.0175L1.00239 38.0175L0.519431 38.1469ZM19.0546 48.8482L18.9252 48.3652L18.9252 48.3652L19.0546 48.8482ZM25.8745 44.8991L26.2289 44.5463C26.1349 44.452 26.0072 44.399 25.874 44.3991C25.7409 44.3992 25.6133 44.4525 25.5195 44.547L25.8745 44.8991ZM40.5284 48.8482L40.6578 49.3312L40.6578 49.3312L40.5284 48.8482ZM44.3123 47.2626L44.8047 47.1761C44.7764 47.0146 44.6705 46.8772 44.5216 46.8085C44.3726 46.7399 44.1994 46.7486 44.0581 46.832L44.3123 47.2626ZM44.5253 48.2244L45.0082 48.095L45.0082 48.095L44.5253 48.2244ZM58.0671 56.0428L57.9377 55.5598L57.9377 55.5598L58.0671 56.0428ZM63.0497 53.1576L63.4041 52.8048C63.3101 52.7104 63.1824 52.6574 63.0493 52.6576C62.9161 52.6577 62.7885 52.7109 62.6947 52.8055L63.0497 53.1576ZM73.7559 56.0428L73.6265 55.5598L73.6265 55.5598L73.7559 56.0428ZM79.2585 52.5957L79.6716 52.314C79.5841 52.1857 79.4419 52.1053 79.2869 52.0965C79.1318 52.0877 78.9815 52.1514 78.88 52.269L79.2585 52.5957ZM92.081 57.3493L92.2105 57.8323L92.2105 57.8323L92.081 57.3493ZM100.436 42.8777L99.9533 43.0071L99.9533 43.0071L100.436 42.8777ZM94.2995 35.3634L93.8144 35.2422C93.7576 35.4696 93.8664 35.7059 94.0761 35.8106L94.2995 35.3634ZM94.2429 29.3162L93.76 29.4457L93.76 29.4457L94.2429 29.3162ZM79.4379 20.7686L79.5673 21.2515L79.5673 21.2515L79.4379 20.7686ZM73.5868 24.3503L73.2111 24.6802C73.3053 24.7875 73.4409 24.8494 73.5838 24.8503C73.7266 24.8511 73.863 24.7909 73.9585 24.6847L73.5868 24.3503ZM68.0862 12.3968C68.8162 15.1214 68.7993 17.8687 68.1616 20.4229L69.1318 20.6651C69.8096 17.9505 69.8272 15.0307 69.0521 12.138L68.0862 12.3968ZM48.4345 1.05085C56.9942 -1.24274 65.7926 3.83701 68.0862 12.3968L69.0521 12.138C66.6156 3.04472 57.2689 -2.3516 48.1757 0.08492L48.4345 1.05085ZM37.9384 10.001C39.8445 5.74425 43.5797 2.35167 48.4345 1.05085L48.1757 0.08492C43.018 1.46692 39.0495 5.07269 37.0257 9.59233L37.9384 10.001ZM25.8082 8.5781C29.8364 7.49875 33.9217 8.20936 37.2216 10.2235L37.7426 9.36988C34.2188 7.21914 29.8527 6.4591 25.5493 7.61218L25.8082 8.5781ZM15.3834 19.2144C16.6214 14.2058 20.4744 10.0073 25.8082 8.5781L25.5493 7.61218C19.8498 9.13938 15.7345 13.6265 14.4126 18.9744L15.3834 19.2144ZM11.3501 20.0947C12.5383 19.7763 13.7308 19.6138 14.9063 19.5943L14.8897 18.5944C13.6331 18.6153 12.3592 18.7891 11.0913 19.1288L11.3501 20.0947ZM1.00239 38.0175C-1.0894 30.2108 3.54344 22.1865 11.3501 20.0947L11.0913 19.1288C2.75115 21.3635 -2.19827 29.9362 0.0364686 38.2763L1.00239 38.0175ZM18.9252 48.3652C11.1185 50.457 3.09419 45.8242 1.00239 38.0175L0.0364685 38.2763C2.27121 46.6165 10.8439 51.5659 19.184 49.3312L18.9252 48.3652ZM25.5195 44.547C23.7579 46.3231 21.5171 47.6707 18.9252 48.3652L19.184 49.3312C21.9514 48.5897 24.3467 47.1495 26.2295 45.2512L25.5195 44.547ZM40.399 48.3652C35.1521 49.7712 29.8062 48.1398 26.2289 44.5463L25.5202 45.2519C29.3398 49.0886 35.0511 50.8335 40.6578 49.3312L40.399 48.3652ZM44.0581 46.832C42.9404 47.4916 41.7152 48.0126 40.399 48.3652L40.6578 49.3312C42.0623 48.9548 43.3714 48.3984 44.5664 47.6932L44.0581 46.832ZM43.8198 47.3491C43.8786 47.6841 43.9526 48.0193 44.0423 48.3538L45.0082 48.095C44.9262 47.7888 44.8585 47.4823 44.8047 47.1761L43.8198 47.3491ZM44.0423 48.3538C45.6943 54.519 52.0313 58.1777 58.1965 56.5258L57.9377 55.5598C52.306 57.0689 46.5172 53.7267 45.0082 48.095L44.0423 48.3538ZM58.1965 56.5258C60.242 55.9777 62.0128 54.913 63.4047 53.5097L62.6947 52.8055C61.424 54.0866 59.8077 55.0588 57.9377 55.5598L58.1965 56.5258ZM62.6954 53.5103C65.5187 56.3463 69.7405 57.6364 73.8853 56.5258L73.6265 55.5598C69.8415 56.574 65.9851 55.3974 63.4041 52.8048L62.6954 53.5103ZM73.8853 56.5258C76.2077 55.9035 78.1755 54.6156 79.637 52.9224L78.88 52.269C77.5454 53.8152 75.7492 54.9911 73.6265 55.5598L73.8853 56.5258ZM78.8454 52.8774C81.7115 57.0797 87.0175 59.2237 92.2105 57.8323L91.9516 56.8664C87.1818 58.1444 82.3056 56.1761 79.6716 52.314L78.8454 52.8774ZM92.2105 57.8323C98.7807 56.0718 102.68 49.3185 100.919 42.7483L99.9533 43.0071C101.571 49.0438 97.9884 55.2488 91.9516 56.8664L92.2105 57.8323ZM100.919 42.7483C99.9694 39.2035 97.5655 36.436 94.523 34.9161L94.0761 35.8106C96.8735 37.2081 99.0806 39.7503 99.9533 43.0071L100.919 42.7483ZM94.7846 35.4845C95.2853 33.4795 95.2983 31.323 94.7259 29.1868L93.76 29.4457C94.2873 31.4137 94.275 33.3977 93.8144 35.2422L94.7846 35.4845ZM94.7259 29.1868C92.9265 22.4714 86.0239 18.4862 79.3085 20.2856L79.5673 21.2515C85.7493 19.5951 92.1035 23.2637 93.76 29.4457L94.7259 29.1868ZM79.3085 20.2856C76.8687 20.9394 74.7881 22.2676 73.2151 24.0159L73.9585 24.6847C75.406 23.0759 77.32 21.8537 79.5673 21.2515L79.3085 20.2856ZM68.4232 20.9913C70.2323 21.8953 71.8634 23.1453 73.2111 24.6802L73.9625 24.0204C72.5286 22.3873 70.7938 21.058 68.8702 20.0968L68.4232 20.9913Z" fill="#D7D6FB" mask="url(#path-1-inside-1_123_2280)"/>
<mask id="path-3-inside-2_123_2280" fill="white">
<path fill-rule="evenodd" clip-rule="evenodd" d="M94.2995 35.3634C94.7801 33.4386 94.7928 31.3683 94.2429 29.3162C92.515 22.8676 85.8866 19.0407 79.4379 20.7686C75.7805 21.7486 72.9664 24.305 71.5307 27.5109C69.0382 25.99 65.9513 25.453 62.9082 26.2684C58.8777 27.3484 55.9669 30.5213 55.0317 34.3046C54.1428 34.3192 53.2413 34.442 52.3436 34.6826C46.4452 36.2631 42.9448 42.326 44.5253 48.2244C46.1057 54.1229 52.1686 57.6233 58.0671 56.0428C60.0249 55.5182 61.7184 54.4998 63.0497 53.1576C65.7519 55.8718 69.791 57.1052 73.7559 56.0428C75.9784 55.4473 77.8604 54.2154 79.2585 52.5957C82.0086 56.6279 87.0997 58.6841 92.0811 57.3493C98.3845 55.6603 102.125 49.1812 100.436 42.8777C99.525 39.4769 97.2195 36.822 94.2995 35.3634Z"/>
</mask>
<path fill-rule="evenodd" clip-rule="evenodd" d="M94.2995 35.3634C94.7801 33.4386 94.7928 31.3683 94.2429 29.3162C92.515 22.8676 85.8866 19.0407 79.4379 20.7686C75.7805 21.7486 72.9664 24.305 71.5307 27.5109C69.0382 25.99 65.9513 25.453 62.9082 26.2684C58.8777 27.3484 55.9669 30.5213 55.0317 34.3046C54.1428 34.3192 53.2413 34.442 52.3436 34.6826C46.4452 36.2631 42.9448 42.326 44.5253 48.2244C46.1057 54.1229 52.1686 57.6233 58.0671 56.0428C60.0249 55.5182 61.7184 54.4998 63.0497 53.1576C65.7519 55.8718 69.791 57.1052 73.7559 56.0428C75.9784 55.4473 77.8604 54.2154 79.2585 52.5957C82.0086 56.6279 87.0997 58.6841 92.0811 57.3493C98.3845 55.6603 102.125 49.1812 100.436 42.8777C99.525 39.4769 97.2195 36.822 94.2995 35.3634Z" fill="#F4F4F4"/>
<path d="M94.2995 35.3634L93.8144 35.2422C93.7576 35.4696 93.8664 35.7059 94.0761 35.8106L94.2995 35.3634ZM71.5307 27.5109L71.2703 27.9377C71.3929 28.0125 71.5418 28.031 71.6789 27.9884C71.8161 27.9459 71.9284 27.8463 71.9871 27.7152L71.5307 27.5109ZM55.0317 34.3046L55.04 34.8045C55.2668 34.8008 55.4627 34.6448 55.5171 34.4245L55.0317 34.3046ZM63.0497 53.1576L63.4041 52.8048C63.3101 52.7104 63.1824 52.6574 63.0493 52.6576C62.9161 52.6577 62.7885 52.7109 62.6947 52.8055L63.0497 53.1576ZM79.2585 52.5957L79.6716 52.314C79.5841 52.1857 79.4419 52.1053 79.2869 52.0965C79.1318 52.0877 78.9815 52.1514 78.88 52.269L79.2585 52.5957ZM94.7846 35.4845C95.2853 33.4795 95.2983 31.323 94.7259 29.1868L93.76 29.4457C94.2873 31.4137 94.275 33.3977 93.8144 35.2422L94.7846 35.4845ZM94.7259 29.1868C92.9265 22.4714 86.0239 18.4862 79.3085 20.2856L79.5673 21.2515C85.7493 19.5951 92.1035 23.2637 93.76 29.4457L94.7259 29.1868ZM79.3085 20.2856C75.4996 21.3062 72.5689 23.9692 71.0744 27.3066L71.9871 27.7152C73.3638 24.6408 76.0614 22.191 79.5673 21.2515L79.3085 20.2856ZM71.7912 27.0841C69.1867 25.4948 65.9595 24.9332 62.7788 25.7854L63.0376 26.7513C65.9432 25.9728 68.8897 26.4851 71.2703 27.9377L71.7912 27.0841ZM62.7788 25.7854C58.5654 26.9144 55.5234 30.2317 54.5464 34.1846L55.5171 34.4245C56.4103 30.8109 59.19 27.7823 63.0376 26.7513L62.7788 25.7854ZM55.0235 33.8046C54.094 33.8199 53.1518 33.9484 52.2142 34.1996L52.473 35.1655C53.3309 34.9357 54.1917 34.8185 55.04 34.8045L55.0235 33.8046ZM52.2142 34.1996C46.049 35.8516 42.3903 42.1886 44.0423 48.3538L45.0082 48.095C43.4992 42.4633 46.8413 36.6746 52.473 35.1655L52.2142 34.1996ZM44.0423 48.3538C45.6943 54.519 52.0313 58.1777 58.1965 56.5258L57.9377 55.5598C52.306 57.0689 46.5172 53.7267 45.0082 48.095L44.0423 48.3538ZM58.1965 56.5258C60.242 55.9777 62.0128 54.913 63.4047 53.5097L62.6947 52.8055C61.424 54.0866 59.8077 55.0588 57.9377 55.5598L58.1965 56.5258ZM62.6954 53.5103C65.5187 56.3463 69.7405 57.6364 73.8853 56.5258L73.6265 55.5598C69.8415 56.574 65.9851 55.3974 63.4041 52.8048L62.6954 53.5103ZM73.8853 56.5258C76.2076 55.9035 78.1755 54.6156 79.637 52.9224L78.88 52.269C77.5454 53.8152 75.7492 54.9911 73.6265 55.5598L73.8853 56.5258ZM91.9516 56.8664C87.1818 58.1444 82.3057 56.1761 79.6716 52.314L78.8454 52.8774C81.7115 57.0797 87.0175 59.2237 92.2105 57.8323L91.9516 56.8664ZM99.9533 43.0071C101.571 49.0438 97.9884 55.2488 91.9516 56.8664L92.2105 57.8323C98.7807 56.0718 102.68 49.3185 100.919 42.7483L99.9533 43.0071ZM94.0761 35.8106C96.8735 37.2081 99.0806 39.7503 99.9533 43.0071L100.919 42.7483C99.9694 39.2035 97.5655 36.436 94.523 34.9161L94.0761 35.8106Z" fill="#D7D6FB" mask="url(#path-3-inside-2_123_2280)"/>
</svg>
