<svg width="492" height="538" viewBox="0 0 492 538" fill="none" xmlns="http://www.w3.org/2000/svg">
<circle cx="131.976" cy="11.2448" r="10.0646" transform="rotate(7.18775 131.976 11.2448)" fill="#525463"/>
<path d="M98.0564 67.9421C62.5617 91.1419 69.4635 137.186 77.3512 157.309C119.945 249.634 300.968 237.798 319.898 237.206C338.829 236.614 390.296 231.288 409.227 213.533C428.157 195.778 423.425 170.921 406.86 156.717C390.296 142.513 366.042 143.696 305.701 146.064C245.359 148.431 214.865 75.7804 189.999 62.7564C168.435 51.4612 142.425 38.9423 98.0564 67.9421Z" fill="#ABE7AE"/>
<path d="M88.1744 24.3357C84.3662 33.4312 76.3366 50.0869 93.2283 76.1892" stroke="#525463" stroke-width="4" stroke-linecap="round"/>
<path d="M132.526 9.37493C128.312 17.4262 115.056 37.923 123.056 60.6061" stroke="#525463" stroke-width="4" stroke-linecap="round"/>
<circle cx="86.5707" cy="25.7173" r="8.88055" transform="rotate(7.18775 86.5707 25.7173)" fill="#525463"/>
<path d="M228.958 136.168C230.49 147.573 228.277 173.653 207.168 186.733" stroke="#F6F6F6" stroke-opacity="0.5" stroke-width="6" stroke-linecap="round"/>
<path d="M287.773 156.526C292.114 165.885 296.532 188.271 279.476 202.937" stroke="#F6F6F6" stroke-opacity="0.5" stroke-width="6" stroke-linecap="round"/>
<path d="M350.107 157.619C355.607 166.358 362.846 188.023 347.802 204.77" stroke="#F6F6F6" stroke-opacity="0.5" stroke-width="6" stroke-linecap="round"/>
<line x1="97.3286" y1="93.876" x2="101.157" y2="99.8573" stroke="#2B2D36" stroke-width="2"/>
<line x1="104.395" y1="93.2777" x2="104.844" y2="98.5114" stroke="#2B2D36" stroke-width="2"/>
<ellipse cx="107.268" cy="115.115" rx="11.2177" ry="18.0459" transform="rotate(-16.6734 107.268 115.115)" fill="white"/>
<mask id="mask0_52_1765" style="mask-type:alpha" maskUnits="userSpaceOnUse" x="95" y="97" width="25" height="36">
<ellipse cx="107.268" cy="115.115" rx="11.2177" ry="18.0459" transform="rotate(-16.6734 107.268 115.115)" fill="white"/>
</mask>
<g mask="url(#mask0_52_1765)">
<ellipse cx="114.464" cy="111.942" rx="10.2423" ry="15.1195" transform="rotate(-16.6734 114.464 111.942)" fill="#2B2D36"/>
</g>
<path d="M151.186 89.5067L142.055 104.19L142.858 104.689L142.845 104.71L157.588 113.744L159.325 110.91L146.628 103.13L154.009 91.262L151.186 89.5067Z" fill="#2B2D36"/>
<line x1="144.692" y1="103.601" x2="164.087" y2="97.7573" stroke="#2B2D36" stroke-width="3"/>
<path d="M124.284 137.362V137.362C136.274 146.932 154.133 139.548 156.052 124.328V124.328" stroke="#525463" stroke-width="3" stroke-linecap="round"/>
<path d="M269.351 289C262.153 289 256.318 294.835 256.318 302.033V375.887C256.318 383.085 262.153 388.921 269.351 388.921H479.428C486.371 388.921 492 383.292 492 376.349C492 369.542 486.583 363.972 479.78 363.782L407.828 361.768L352.514 363.337C351.673 362.097 351.048 360.805 350.808 359.516V357.307C351.014 356.296 351.527 355.308 352.433 354.37L370.936 355.74C395.858 357.584 420.883 357.584 445.806 355.74L479.929 353.214C486.735 352.71 492 347.041 492 340.217V334.305C492 328.663 487.118 324.262 481.507 324.845C438.839 329.279 395.869 329.822 353.126 326.475C352.5 324.234 352.955 321.976 355.376 319.994L368.764 320.985C393.686 322.829 418.711 322.829 443.634 320.985L477.757 318.459C484.563 317.955 489.828 312.286 489.828 305.462V302.033C489.828 294.835 483.993 289 476.795 289H269.351Z" fill="#2B2D36"/>
<path d="M0 304.205C0 297.007 5.8351 291.172 13.0331 291.172H103.179C110.377 291.172 116.212 297.007 116.212 304.205V350.907C116.212 358.105 110.377 363.94 103.179 363.94H45.6159C38.7837 363.94 33.1793 358.683 32.6273 351.993H13.0331C5.8351 351.993 0 346.158 0 338.96V304.205Z" fill="#2B2D36"/>
<path d="M134.675 291.172C127.477 291.172 121.642 297.007 121.642 304.205V338.96C121.642 346.158 127.477 351.993 134.675 351.993H154.27C154.822 358.683 160.426 363.94 167.258 363.94H224.821C232.019 363.94 237.854 358.105 237.854 350.907V304.205C237.854 297.007 232.019 291.172 224.821 291.172H134.675Z" fill="#2B2D36"/>
<path d="M256.318 408.47C256.318 401.272 262.153 395.437 269.351 395.437H476.795C483.993 395.437 489.828 401.272 489.828 408.47V419.331C489.828 426.529 483.993 432.364 476.795 432.364H269.351C262.153 432.364 256.318 426.529 256.318 419.331V408.47Z" fill="#2B2D36"/>
<path d="M269.351 436.709C262.153 436.709 256.318 442.544 256.318 449.742V451.73C256.318 459.405 262.905 465.429 270.553 464.786C289.216 463.215 322.402 460.65 346.464 460.06C359.506 459.74 374.247 459.892 389.187 460.315C392.574 463.288 391.694 466.846 389.448 470.027C363.841 469.469 342.305 469.094 337.775 469.291C328.629 469.689 289.198 471.251 268.74 472.06C261.788 472.334 256.318 478.049 256.318 485.008C256.318 485.656 256.366 486.295 256.458 486.92C256.366 487.547 256.318 488.189 256.318 488.841V524.682C256.318 531.88 262.153 537.715 269.351 537.715H478.967C486.165 537.715 492 531.88 492 524.682V521.893C492 514.515 485.88 508.607 478.506 508.868L369.272 512.735L354.708 512.164C352.796 509.362 351.985 506.287 354.225 503.588C391.632 504.374 429.074 502.934 466.352 499.266L480.391 497.885C483.01 497.627 485.382 496.596 487.288 495.032C490.113 493.318 492 490.214 492 486.669V449.742C492 442.544 486.165 436.709 478.967 436.709H269.351Z" fill="#2B2D36"/>
<path d="M13.0331 373.715C5.8351 373.715 0 379.55 0 386.748V413.901C0 421.099 5.8351 426.934 13.0331 426.934H67.3377V436.709H13.0331C5.8351 436.709 0 442.544 0 449.742V522.51C0 529.708 5.8351 535.543 13.0331 535.543H224.821C232.019 535.543 237.854 529.708 237.854 522.51V449.742C237.854 442.544 232.019 436.709 224.821 436.709H169.43V426.934H224.821C232.019 426.934 237.854 421.099 237.854 413.901V386.748C237.854 379.55 232.019 373.715 224.821 373.715H13.0331Z" fill="#2B2D36"/>
<path d="M97.0215 472.713C97.5463 471.674 98.6592 471.069 99.8161 471.193L108.759 472.152C116.58 472.99 124.468 472.988 132.288 472.144L140.735 471.232C142.065 471.089 143.315 471.889 143.742 473.156V473.156C144.715 476.044 142.893 479.121 139.893 479.658L133.798 480.747C125.014 482.317 116.026 482.359 107.229 480.872L100.574 479.747C97.3232 479.197 95.5344 475.655 97.0215 472.713V472.713Z" fill="#FF5A5A"/>
</svg>
