<svg width="375" height="580" viewBox="0 0 375 580" fill="none" xmlns="http://www.w3.org/2000/svg">
<g clip-path="url(#clip0_123_2144)">
<rect width="375" height="580" fill="white"/>
<path d="M297.623 489.206H307.361C308.253 489.206 308.984 489.535 308.984 489.939V491.156C308.984 491.357 308.619 491.522 308.172 491.522H296.811C296.365 491.522 296 491.357 296 491.156V489.939C296 489.535 296.73 489.206 297.623 489.206Z" fill="white"/>
<path d="M296 492.255V492.827C296 493.223 296.471 493.59 297.242 493.784L299.644 494.396C300.155 494.524 300.471 494.77 300.471 495.034V495.804C300.471 496.207 301.202 496.537 302.094 496.537H302.906C303.798 496.537 304.529 496.207 304.529 495.804V495.034C304.529 494.77 304.845 494.524 305.356 494.396L307.758 493.784C308.521 493.59 309 493.223 309 492.827V492.255C309 492.054 308.635 491.889 308.189 491.889H296.811C296.365 491.889 296 492.05 296 492.255Z" fill="white"/>
<rect width="375" height="500" fill="#CCEDFF"/>
<rect y="500" width="375" height="80" fill="#8CD27B"/>
<path d="M174 538L179.108 442.766L227.78 423L241 538H174Z" fill="#4F6051"/>
<path d="M160 538L161.677 442.766L177.659 423L182 538H160Z" fill="#3D4E3F"/>
<path d="M33.8146 212.193C33.8146 114.22 111.476 83.9496 150.306 81.0613C237.753 51.0224 296.905 102.82 315.55 132.474C358.246 132.474 357.288 209.497 351.472 248.008C366.868 265.338 379.697 347.945 315.55 420.154C264.232 477.921 167.583 465.02 125.674 451.348C61.2187 442.568 37.5781 378.754 33.8146 347.945C-0.260487 309.588 19.6167 241.461 33.8146 212.193Z" fill="#74C996"/>
<path d="M27.8146 213.814C27.8146 119.6 105.476 90.4912 144.306 87.7136C231.752 58.8272 290.905 108.638 309.55 137.154C352.246 137.154 351.288 211.222 345.472 248.256C360.868 264.921 373.697 344.359 309.55 413.798C258.232 469.349 161.583 456.942 119.674 443.795C55.2187 435.351 31.5781 373.986 27.8146 344.359C-6.26049 307.473 13.6167 241.96 27.8146 213.814Z" fill="#7EDBA3" stroke="#74C996"/>
<path d="M109.802 217.513C108.981 217.623 108.404 218.377 108.513 219.198L110.297 232.58C110.407 233.401 111.161 233.978 111.982 233.868C112.804 233.759 113.381 233.004 113.271 232.183L111.685 220.289L123.58 218.703C124.401 218.593 124.978 217.839 124.868 217.018C124.759 216.196 124.004 215.619 123.183 215.729L109.802 217.513ZM127.911 230.808L110.911 217.808L109.089 220.192L126.089 233.192L127.911 230.808Z" fill="#FF9797" fill-opacity="0.55"/>
<path d="M268.5 322.994C268.503 323.822 267.835 324.496 267.006 324.5L253.506 324.555C252.678 324.559 252.004 323.89 252 323.062C251.997 322.233 252.666 321.559 253.494 321.555L265.494 321.506L265.444 309.506C265.441 308.678 266.11 308.003 266.938 308C267.767 307.997 268.441 308.665 268.444 309.494L268.5 322.994ZM253.056 307.058L268.056 321.935L265.944 324.065L250.944 309.188L253.056 307.058Z" fill="#FF9797" fill-opacity="0.55"/>
<path d="M269.5 217.006C269.503 216.178 268.835 215.504 268.006 215.5L254.506 215.445C253.678 215.441 253.004 216.11 253 216.938C252.997 217.767 253.666 218.441 254.494 218.445L266.494 218.494L266.444 230.494C266.441 231.322 267.11 231.997 267.938 232C268.767 232.003 269.441 231.335 269.444 230.506L269.5 217.006ZM254.056 232.942L269.056 218.065L266.944 215.935L251.944 230.812L254.056 232.942Z" fill="#FF9797" fill-opacity="0.55"/>
<path d="M109.802 322.487C108.981 322.377 108.404 321.623 108.513 320.802L110.297 307.42C110.407 306.599 111.161 306.022 111.982 306.132C112.804 306.241 113.381 306.996 113.271 307.817L111.685 319.711L123.58 321.297C124.401 321.407 124.978 322.161 124.868 322.982C124.759 323.804 124.004 324.381 123.183 324.271L109.802 322.487ZM127.911 309.192L110.911 322.192L109.089 319.808L126.089 306.808L127.911 309.192Z" fill="#FF9797" fill-opacity="0.55"/>
<path d="M259 265.602C259 306.339 234.37 340 191.343 340C148.316 340 119 306.339 119 265.602C119 224.866 148.316 211 191.343 211C234.37 211 259 224.866 259 265.602Z" fill="#FF5A5A"/>
<path d="M201.047 197.721C194.862 196.539 183.289 198.265 186.477 214.624C192.565 215.308 204.003 212.883 201.047 197.721Z" fill="#00BC8F"/>
<path d="M347 178.708C347 204.603 331.343 226 303.99 226C276.636 226 258 204.603 258 178.708C258 152.814 276.636 144 303.99 144C331.343 144 347 152.814 347 178.708Z" fill="#FF7E7E"/>
<path d="M314.067 135.62C309.509 134.501 301.153 135.224 304.2 147.068C308.666 147.826 316.891 146.597 314.067 135.62Z" fill="#00BC8F"/>
<path d="M345 354.708C345 380.603 329.343 402 301.99 402C274.636 402 256 380.603 256 354.708C256 328.814 274.636 320 301.99 320C329.343 320 345 328.814 345 354.708Z" fill="#FF7E7E"/>
<path d="M312.067 311.62C307.509 310.501 299.153 311.224 302.2 323.068C306.666 323.826 314.891 322.597 312.067 311.62Z" fill="#00BC8F"/>
<path d="M120 178.708C120 204.603 104.343 226 76.9895 226C49.6364 226 31 204.603 31 178.708C31 152.814 49.6364 144 76.9895 144C104.343 144 120 152.814 120 178.708Z" fill="#FF7E7E"/>
<path d="M87.0675 135.62C82.5088 134.501 74.153 135.224 77.1998 147.068C81.6656 147.826 89.8914 146.597 87.0675 135.62Z" fill="#00BC8F"/>
<path d="M118 354.708C118 380.603 102.343 402 74.9895 402C47.6364 402 29 380.603 29 354.708C29 328.814 47.6364 320 74.9895 320C102.343 320 118 328.814 118 354.708Z" fill="#FF7E7E"/>
<path d="M85.0675 311.62C80.5088 310.501 72.153 311.224 75.1998 323.068C79.6656 323.826 87.8914 322.597 85.0675 311.62Z" fill="#00BC8F"/>
<path d="M32.5 227.5C25.5 243.333 14.0999 281.1 24.4999 317.5" stroke="#74C996" stroke-width="3" stroke-linecap="round"/>
</g>
<defs>
<clipPath id="clip0_123_2144">
<rect width="375" height="580" fill="white"/>
</clipPath>
</defs>
</svg>
